<svg width="180" height="240" viewBox="0 0 180 240" fill="none" xmlns="http://www.w3.org/2000/svg">
<path d="M44.2258 37.5H0.72583V52H44.2258V37.5Z" fill="#5E4500"/>
<path d="M43.2261 114L86.7261 68V112.5L139.726 68V107.5L179.726 68V142C125.292 138.504 80.3351 159.948 80.2261 160C38.7261 135.5 0.226074 135.5 0.226074 135.5V57H43.2261V114ZM67.7261 117.5V129H76.7261V117.5H67.7261ZM111.726 128.5H120.726V117H111.726V128.5ZM157.726 128.5H166.726V117H157.726V128.5Z" fill="#5E4500"/>
<path fill-rule="evenodd" clip-rule="evenodd" d="M0.226196 141.5C0.226196 141.5 39.7258 146 69.2258 166C38.7599 179.008 27.7259 188 15.7257 203.5C3.42691 184.5 -1.1134 167.756 0.226196 141.5ZM171.111 189.5C175.65 178.902 178.631 166.06 179.226 150.5C135.726 146.5 87.7259 155 15.7257 203.5C22.638 214.178 31.6482 221.702 40.7259 227C64.3351 240.778 89.7258 239.5 89.7258 239.5C89.7258 239.5 104.738 239.322 123.226 232.5C140.297 226.201 160.478 214.331 171.111 189.5ZM104.726 201.5C117.726 187.134 129.226 178.5 150.226 164.5L171.111 189.5C162.226 184.5 157.226 180.5 150.226 174C132.726 186.5 122.226 193.687 104.726 201.5ZM104.726 201.5C110.244 208.823 112.949 213.95 115.941 219.62C117.935 223.401 120.057 227.424 123.226 232.5C121.739 230.997 120.331 229.583 118.987 228.233C108.129 217.327 101.459 210.628 91.2259 195.5C75.2259 207 61.4559 215.5 40.7259 227C49.5165 215.53 65.3814 204.396 81.5517 193.048C85.1191 190.544 88.7015 188.03 92.2259 185.5C92.2259 185.5 93.2259 186.5 103.226 199.5C103.445 199.785 103.867 200.351 104.227 200.833C104.428 201.102 104.61 201.346 104.726 201.5Z" fill="#7CBD1E"/>
<path d="M23.2258 21.5C19.7258 22 14.2792 24.7663 8.22607 27.5C9.22583 2.5 30.8927 16.5 49.2261 0C45.7258 12 40.7258 26.5 21.2258 31.5C1.72583 36.5 26.7258 21 23.2258 21.5Z" fill="#7CBD1E"/>
</svg>
