<svg width="625" height="685" viewBox="0 0 625 685" fill="none" xmlns="http://www.w3.org/2000/svg">
<g clip-path="url(#clip0_169_63)">
<path d="M599.51 134.02H24.6001V655.59H599.51V134.02Z" fill="#E8E8E8"/>
<path d="M603.22 155.11H20.8799V181H603.22V155.11Z" fill="#DDDDDD"/>
<path d="M599.51 181H24.5999V191.9H599.51V181Z" fill="#C6C6C6"/>
<path d="M603.22 245.56H20.8799V271.45H603.22V245.56Z" fill="#DDDDDD"/>
<path d="M599.51 271.45H24.5999V282.35H599.51V271.45Z" fill="#C6C6C6"/>
<path d="M603.22 336.01H20.8799V361.9H603.22V336.01Z" fill="#DDDDDD"/>
<path d="M599.51 361.9H24.5999V372.8H599.51V361.9Z" fill="#C6C6C6"/>
<path d="M603.22 426.45H20.8799V452.34H603.22V426.45Z" fill="#DDDDDD"/>
<path d="M599.51 452.35H24.5999V463.25H599.51V452.35Z" fill="#C6C6C6"/>
<path d="M603.22 516.9H20.8799V542.79H603.22V516.9Z" fill="#DDDDDD"/>
<path d="M599.51 542.8H24.5999V553.7H599.51V542.8Z" fill="#C6C6C6"/>
<path d="M603.22 607.35H20.8799V633.24H603.22V607.35Z" fill="#DDDDDD"/>
<path d="M599.51 633.24H24.5999V644.14H599.51V633.24Z" fill="#C6C6C6"/>
<path d="M599.51 111.99H24.6001V134.03H599.51V111.99Z" fill="#C6C6C6"/>
<path d="M609.62 684.67H14.4801C6.6701 684.67 0.350098 678.16 0.350098 670.13C0.350098 662.1 6.6801 655.59 14.4801 655.59H609.62C617.43 655.59 623.75 662.1 623.75 670.13C623.75 678.16 617.42 684.67 609.62 684.67Z" fill="#E8E8E8"/>
<path d="M312.05 5.06006L624.1 111.99H312.05H0L312.05 5.06006Z" fill="#E8E8E8"/>
<path d="M436.89 60.17L499.88 86.31L563.05 111.99L500.72 84.21L438.21 56.88L375.58 29.85L313.67 3.25L312.05 0L310.43 3.25L248.52 29.85L185.89 56.89C144.19 75.05 102.53 93.29 61.05 111.99C103.24 95.05 145.24 77.64 187.21 60.16L250.08 33.73L292.33 15.89L271.81 30.05C258.83 39.05 245.76 47.91 232.87 57.06C206.99 75.19 181.16 93.38 155.6 112C182.19 94.97 208.5 77.52 234.78 60.01C247.97 51.33 260.98 42.38 274.07 33.55L306.16 11.82L296.68 30.83C292.25 39.79 287.69 48.68 283.41 57.71C274.69 75.7 266.04 93.73 257.82 111.99C267.68 94.61 277.1 77 286.46 59.34C291.22 50.56 295.69 41.62 300.3 32.76L312.05 9.98L323.8 32.76C328.41 41.62 332.88 50.56 337.64 59.34L351.75 85.77C356.6 94.5 361.31 103.31 366.29 111.98C362.22 102.83 357.9 93.81 353.71 84.72L340.71 57.69C336.43 48.65 331.86 39.77 327.43 30.81L317.95 11.81L350.04 33.54C363.14 42.36 376.14 51.32 389.33 60L428.79 86.19C442.03 94.78 455.19 103.5 468.51 111.98C455.75 102.63 442.84 93.53 430.01 84.3L391.24 57.03C378.35 47.89 365.28 39.03 352.3 30.03L331.8 15.89L374.03 33.73L436.89 60.17Z" fill="#C6C6C6"/>
<path d="M25 656V116.482C25 116.482 121.316 154.924 191 158C263.833 161.215 311.014 139.475 383.722 116.482C468.324 89.7265 600 158 600 158V656H25Z" fill="#43AE00" fill-opacity="0.4"/>
</g>
<defs>
<clipPath id="clip0_169_63">
<rect width="624.1" height="684.67" fill="white"/>
</clipPath>
</defs>
</svg>
